<svg width="129" height="129" viewBox="0 0 129 129" fill="none" xmlns="http://www.w3.org/2000/svg">
<circle cx="64.5" cy="64.5" r="64.5" fill="#2E8CFE"/>
<path d="M78.8519 60.6925C78.985 59.9043 78.9444 59.0966 78.7331 58.3258C78.5217 57.555 78.1447 56.8395 77.6282 56.2295C77.1118 55.6194 76.4685 55.1294 75.7431 54.7937C75.0177 54.458 74.2278 54.2846 73.4285 54.2857L73.4025 54.291C73.4319 52.8187 73.1446 51.3573 72.56 50.0057C72.5038 49.8956 72.4225 49.8001 72.3227 49.727C72.2229 49.654 72.1074 49.6053 71.9853 49.585C71.8633 49.5647 71.7383 49.5733 71.6202 49.6102C71.5021 49.647 71.3943 49.711 71.3054 49.797C69.5254 51.1671 67.4923 52.1721 65.3228 52.7542C63.5354 53.4095 61.9993 54.6103 60.932 56.1868C59.8273 55.1662 58.4238 54.5276 56.9286 54.3652V51.9286C56.9275 50.887 56.5133 49.8884 55.7767 49.1519C55.0402 48.4154 54.0416 48.0011 53 48C52.7917 48 52.5918 48.0828 52.4445 48.2302C52.2971 48.3775 52.2143 48.5774 52.2143 48.7857C52.2143 48.9941 52.2971 49.194 52.4445 49.3413C52.5918 49.4887 52.7917 49.5715 53 49.5715C53.625 49.5721 54.2241 49.8207 54.666 50.2626C55.1079 50.7045 55.3565 51.3037 55.3572 51.9286V54.3652C53.7512 54.5455 52.2563 55.2732 51.1238 56.426C49.9912 57.5789 49.2901 59.0865 49.1383 60.6954C48.6641 60.8465 48.2501 61.1441 47.9557 61.5454C47.6613 61.9466 47.5018 62.4309 47.5001 62.9286V64.5001C47.4925 66.9928 48.055 69.4544 49.1444 71.6965C50.2338 73.9386 51.8214 75.902 53.7858 77.4367V78.6429C53.7864 79.2678 54.035 79.867 54.4769 80.3089C54.9188 80.7508 55.5179 80.9994 56.1429 81H71.8571C72.4821 80.9994 73.0812 80.7508 73.5231 80.3089C73.965 79.867 74.2136 79.2678 74.2143 78.6429V77.4367C76.1786 75.902 77.7662 73.9386 78.8556 71.6965C79.945 69.4544 80.5075 66.9928 80.4999 64.5001V62.9286C80.4982 62.4292 80.3375 61.9433 80.0413 61.5413C79.745 61.1393 79.3284 60.842 78.8519 60.6925ZM73.2473 55.8206C73.306 55.8402 73.3668 55.8525 73.4285 55.8572C74.0124 55.8521 74.59 55.9784 75.1184 56.2267C75.6469 56.475 76.1128 56.8389 76.4817 57.2916C76.8505 57.7442 77.1129 58.274 77.2494 58.8418C77.3858 59.4095 77.3929 60.0006 77.2701 60.5715H70.7532C72.0322 59.2665 72.8995 57.6145 73.2473 55.8206ZM65.82 54.2458C67.822 53.6288 69.7321 52.7462 71.4996 51.6217C72.012 53.2452 71.9908 54.9901 71.4393 56.6007C70.8878 58.2113 69.8349 59.6029 68.4349 60.5715H63.1349C63.0184 59.4326 62.6252 58.3395 61.9895 57.3874C62.8857 55.9471 64.2322 54.8428 65.82 54.2458ZM56.1429 55.8572C57.4619 55.8611 58.7355 56.3396 59.7308 57.2052C60.7261 58.0708 61.3767 59.2657 61.5635 60.5715H50.7223C50.9091 59.2657 51.5597 58.0708 52.555 57.2052C53.5503 56.3396 54.8238 55.8611 56.1429 55.8572ZM78.9285 64.5001C78.9347 66.8216 78.3949 69.1121 77.3527 71.1866C76.3106 73.261 74.7952 75.0614 72.929 76.4423C72.8121 76.5315 72.7231 76.6523 72.6724 76.7904C72.6217 76.9285 72.6114 77.0781 72.6428 77.2219V78.6429C72.6426 78.8512 72.5597 79.0509 72.4124 79.1982C72.2651 79.3455 72.0654 79.4283 71.8571 79.4286H56.1429C55.9346 79.4283 55.7349 79.3455 55.5876 79.1982C55.4403 79.0509 55.3574 78.8512 55.3572 78.6429V77.2802C55.3993 77.1279 55.3946 76.9665 55.3435 76.817C55.2924 76.6675 55.1974 76.5369 55.071 76.4423C53.2048 75.0614 51.6894 73.261 50.6473 71.1866C49.6051 69.1121 49.0653 66.8216 49.0715 64.5001V62.9286C49.0718 62.7203 49.1546 62.5206 49.3019 62.3733C49.4492 62.226 49.6489 62.1432 49.8572 62.1429H78.1428C78.3511 62.1432 78.5508 62.226 78.6981 62.3733C78.8454 62.5206 78.9283 62.7203 78.9285 62.9286V64.5001Z" fill="#FCFDFF"/>
<path d="M78.6392 52.1527C78.7684 52.239 78.9203 52.2851 79.0756 52.2851C79.1788 52.2852 79.281 52.2649 79.3764 52.2254C79.4717 52.1859 79.5583 52.128 79.6311 52.0549L81.2025 50.4835C81.3457 50.3353 81.4248 50.1368 81.4231 49.9308C81.4213 49.7248 81.3386 49.5277 81.193 49.382C81.0473 49.2363 80.8502 49.1537 80.6442 49.1519C80.4382 49.1501 80.2397 49.2293 80.0915 49.3725L78.5201 50.9439C78.4102 51.0538 78.3354 51.1938 78.3051 51.3462C78.2748 51.4986 78.2904 51.6565 78.3498 51.8001C78.4093 51.9436 78.51 52.0663 78.6392 52.1527Z" fill="#FCFDFF"/>
<path d="M47.7839 56.0544C47.6547 56.1407 47.5028 56.1868 47.3474 56.1868C47.2443 56.1869 47.1421 56.1667 47.0467 56.1271C46.9514 56.0876 46.8648 56.0297 46.792 55.9566L45.2206 54.3852C45.0774 54.237 44.9982 54.0385 45 53.8325C45.0018 53.6265 45.0845 53.4294 45.2301 53.2837C45.3758 53.1381 45.5729 53.0554 45.7789 53.0536C45.9849 53.0518 46.1834 53.131 46.3315 53.2742L47.903 54.8456C48.0128 54.9555 48.0876 55.0955 48.118 55.2479C48.1483 55.4003 48.1327 55.5582 48.0732 55.7018C48.0138 55.8453 47.9131 55.968 47.7839 56.0544Z" fill="#FCFDFF"/>
<path d="M81.5421 58.7093C81.6713 58.7956 81.8232 58.8417 81.9786 58.8418C82.0818 58.8419 82.184 58.8216 82.2793 58.7821C82.3746 58.7425 82.4612 58.6846 82.5341 58.6115L84.1055 57.0401C84.2486 56.8919 84.3278 56.6934 84.326 56.4874C84.3242 56.2814 84.2416 56.0843 84.0959 55.9387C83.9502 55.793 83.7532 55.7103 83.5471 55.7086C83.3411 55.7068 83.1427 55.786 82.9945 55.9291L81.4231 57.5005C81.3132 57.6104 81.2384 57.7504 81.2081 57.9028C81.1778 58.0552 81.1933 58.2132 81.2528 58.3567C81.3122 58.5003 81.4129 58.623 81.5421 58.7093Z" fill="#FCFDFF"/>
</svg>
