<svg width="45" height="46" viewBox="0 0 45 46" fill="none" xmlns="http://www.w3.org/2000/svg">
<mask id="mask0_505_14079" style="mask-type:alpha" maskUnits="userSpaceOnUse" x="0" y="0" width="45" height="46">
<ellipse cx="22.5" cy="22.5871" rx="22.5" ry="22.5871" fill="#D9D9D9"/>
</mask>
<g mask="url(#mask0_505_14079)">
<path fill-rule="evenodd" clip-rule="evenodd" d="M46.8961 42.1347C46.8961 44.4673 45.0166 46.3567 42.6875 46.3567H-1.37491C-3.69573 46.3567 -5.5835 44.4673 -5.5835 42.1347V-2.18777C-5.5835 -4.52036 -3.69573 -6.40985 -1.37491 -6.40985H42.6875C45.0055 -6.40985 46.8961 -4.52036 46.8961 -2.18777V42.1347Z" fill="#445D97"/>
<path fill-rule="evenodd" clip-rule="evenodd" d="M24.2695 34.0439V23.5938H27.7633L28.2848 19.5186H24.2695V16.9168C24.2695 15.7347 24.5972 14.9358 26.28 14.9358H28.4302V11.2923C28.0583 11.2437 26.7787 11.1304 25.2954 11.1304C22.1991 11.1304 20.076 13.0304 20.076 16.5173V19.5186H16.5708V23.5938H20.076V34.0439H24.2695Z" fill="white"/>
</g>
</svg>
