<svg width="343" height="193" viewBox="0 0 343 193" fill="none" xmlns="http://www.w3.org/2000/svg">
<rect width="343" height="193" rx="5" fill="#B6C4CF"/>
<path d="M122.567 111.47V123.066H123.971V111.47H122.567ZM114.806 116.397C114.806 118.906 116.054 120.505 117.796 120.505C119.538 120.505 120.786 118.906 120.786 116.397C120.786 113.901 119.538 112.315 117.796 112.315C116.054 112.315 114.806 113.901 114.806 116.397ZM116.158 116.397C116.158 114.629 116.821 113.589 117.796 113.589C118.771 113.589 119.447 114.629 119.447 116.397C119.447 118.191 118.771 119.231 117.796 119.231C116.821 119.231 116.158 118.191 116.158 116.397ZM126.337 112.562V120.219H131.784V112.562H126.337ZM127.715 119.114V113.667H130.432V119.114H127.715ZM133.864 123.066H135.268V111.47H133.864V123.066ZM137.388 112.614V113.784H139.923V114.785C139.923 116.748 138.792 118.906 136.972 119.751L137.765 120.843C139.117 120.206 140.131 118.854 140.651 117.268C141.184 118.737 142.185 119.959 143.524 120.557L144.304 119.452C142.471 118.685 141.34 116.696 141.34 114.785V113.784H143.875V112.614H137.388ZM145.149 123.04H146.553V111.483H145.149V123.04ZM148.334 116.761V117.775H158.799V116.761H148.334ZM149.543 119.478H156.16V120.219H149.569V122.936H157.863V121.948H150.947V121.142H157.525V118.503H149.543V119.478ZM149.647 112.718H156.121V113.433H149.66V116.085H157.707V115.097H151.038V114.343H157.499V111.743H149.647V112.718ZM163.511 112.016V113.134H166.826C166.696 114.239 165.292 115.292 163.095 115.552L163.615 116.67C165.656 116.41 167.177 115.487 167.788 114.239C168.399 115.487 169.933 116.397 171.961 116.67L172.481 115.552C170.284 115.292 168.88 114.239 168.75 113.134H172.065V112.016H163.511ZM162.549 118.451H167.203V120.57H168.607V118.451H173.014V117.32H162.549V118.451ZM163.823 122.832H171.87V121.701H165.214V119.517H163.823V122.832ZM181.985 111.47V123.066H183.389V111.47H181.985ZM174.458 120.323H180.048V112.419H178.657V115.331H175.849V112.419H174.458V120.323ZM175.849 119.192V116.423H178.657V119.192H175.849ZM185.157 116.813V117.918H189.668V118.945C187.601 119.075 186.379 119.79 186.379 120.986C186.379 122.286 187.874 123.027 190.37 123.027C192.853 123.027 194.348 122.286 194.348 120.986C194.348 119.79 193.126 119.075 191.072 118.945V117.918H195.596V116.813H185.157ZM185.664 115.149L186.158 116.254C188.225 116.033 189.759 115.201 190.383 114.031C190.994 115.214 192.541 116.033 194.608 116.254L195.102 115.149C192.97 114.954 191.592 114.083 191.371 113.108H194.66V112.003H186.106V113.108H189.395C189.174 114.083 187.783 114.954 185.664 115.149ZM187.783 120.986C187.783 120.31 188.693 119.985 190.37 119.985C192.021 119.985 192.931 120.31 192.931 120.986C192.931 121.636 192.021 121.974 190.37 121.974C188.693 121.974 187.783 121.636 187.783 120.986ZM204.592 111.483V117.684H205.983V111.483H204.592ZM196.662 114.681C196.662 116.28 197.962 117.385 199.743 117.385C201.511 117.385 202.824 116.28 202.824 114.681C202.824 113.108 201.511 112.003 199.743 112.003C197.962 112.003 196.662 113.108 196.662 114.681ZM198.027 114.681C198.027 113.758 198.742 113.147 199.743 113.147C200.744 113.147 201.459 113.758 201.459 114.681C201.459 115.63 200.744 116.228 199.743 116.228C198.742 116.228 198.027 115.63 198.027 114.681ZM198.417 122.897H205.983V118.23H204.605V119.439H199.795V118.23H198.417V122.897ZM199.795 121.779V120.518H204.605V121.779H199.795ZM215.929 111.483V123.04H217.32V111.483H215.929ZM208.402 120.128H209.416C211.184 120.128 213.069 119.998 215.071 119.595L214.902 118.425C213.108 118.789 211.405 118.919 209.806 118.945V112.588H208.402V120.128ZM226.641 111.47V123.066H228.045V117.034H229.8V115.877H228.045V111.47H226.641ZM219.53 120.232H220.466C222.546 120.232 224.106 120.18 225.861 119.855L225.718 118.685C224.158 118.984 222.754 119.049 220.921 119.062V113.706H224.912V112.575H219.53V120.232Z" fill="#FAFBFC"/>
<path d="M185.852 78.6925C185.985 77.9043 185.944 77.0966 185.733 76.3258C185.522 75.555 185.145 74.8395 184.628 74.2295C184.112 73.6194 183.468 73.1294 182.743 72.7937C182.018 72.458 181.228 72.2846 180.429 72.2857L180.402 72.291C180.432 70.8187 180.145 69.3573 179.56 68.0057C179.504 67.8956 179.423 67.8001 179.323 67.727C179.223 67.654 179.107 67.6053 178.985 67.585C178.863 67.5647 178.738 67.5733 178.62 67.6102C178.502 67.647 178.394 67.711 178.305 67.797C176.525 69.1671 174.492 70.1721 172.323 70.7542C170.535 71.4095 168.999 72.6103 167.932 74.1868C166.827 73.1662 165.424 72.5276 163.929 72.3652V69.9286C163.928 68.887 163.513 67.8884 162.777 67.1519C162.04 66.4154 161.042 66.0011 160 66C159.792 66 159.592 66.0828 159.444 66.2302C159.297 66.3775 159.214 66.5774 159.214 66.7857C159.214 66.9941 159.297 67.194 159.444 67.3413C159.592 67.4887 159.792 67.5715 160 67.5715C160.625 67.5721 161.224 67.8207 161.666 68.2626C162.108 68.7045 162.356 69.3037 162.357 69.9286V72.3652C160.751 72.5455 159.256 73.2732 158.124 74.426C156.991 75.5789 156.29 77.0865 156.138 78.6954C155.664 78.8465 155.25 79.1441 154.956 79.5454C154.661 79.9466 154.502 80.4309 154.5 80.9286V82.5001C154.493 84.9928 155.055 87.4544 156.144 89.6965C157.234 91.9386 158.821 93.902 160.786 95.4367V96.6429C160.786 97.2678 161.035 97.867 161.477 98.3089C161.919 98.7508 162.518 98.9994 163.143 99H178.857C179.482 98.9994 180.081 98.7508 180.523 98.3089C180.965 97.867 181.214 97.2678 181.214 96.6429V95.4367C183.179 93.902 184.766 91.9386 185.856 89.6965C186.945 87.4544 187.507 84.9928 187.5 82.5001V80.9286C187.498 80.4292 187.338 79.9433 187.041 79.5413C186.745 79.1393 186.328 78.842 185.852 78.6925ZM180.247 73.8206C180.306 73.8402 180.367 73.8525 180.429 73.8572C181.012 73.8521 181.59 73.9784 182.118 74.2267C182.647 74.475 183.113 74.8389 183.482 75.2916C183.851 75.7442 184.113 76.274 184.249 76.8418C184.386 77.4095 184.393 78.0006 184.27 78.5715H177.753C179.032 77.2665 179.899 75.6145 180.247 73.8206ZM172.82 72.2458C174.822 71.6288 176.732 70.7462 178.5 69.6217C179.012 71.2452 178.991 72.9901 178.439 74.6007C177.888 76.2113 176.835 77.6029 175.435 78.5715H170.135C170.018 77.4326 169.625 76.3395 168.99 75.3874C169.886 73.9471 171.232 72.8428 172.82 72.2458ZM163.143 73.8572C164.462 73.8611 165.736 74.3396 166.731 75.2052C167.726 76.0708 168.377 77.2657 168.563 78.5715H157.722C157.909 77.2657 158.56 76.0708 159.555 75.2052C160.55 74.3396 161.824 73.8611 163.143 73.8572ZM185.929 82.5001C185.935 84.8216 185.395 87.1121 184.353 89.1866C183.311 91.261 181.795 93.0614 179.929 94.4423C179.812 94.5315 179.723 94.6523 179.672 94.7904C179.622 94.9285 179.611 95.0781 179.643 95.2219V96.6429C179.643 96.8512 179.56 97.0509 179.412 97.1982C179.265 97.3455 179.065 97.4283 178.857 97.4286H163.143C162.935 97.4283 162.735 97.3455 162.588 97.1982C162.44 97.0509 162.357 96.8512 162.357 96.6429V95.2802C162.399 95.1279 162.395 94.9665 162.343 94.817C162.292 94.6675 162.197 94.5369 162.071 94.4423C160.205 93.0614 158.689 91.261 157.647 89.1866C156.605 87.1121 156.065 84.8216 156.071 82.5001V80.9286C156.072 80.7203 156.155 80.5206 156.302 80.3733C156.449 80.226 156.649 80.1432 156.857 80.1429H185.143C185.351 80.1432 185.551 80.226 185.698 80.3733C185.845 80.5206 185.928 80.7203 185.929 80.9286V82.5001Z" fill="#FAFBFC"/>
<path d="M185.639 70.1527C185.768 70.239 185.92 70.2851 186.076 70.2851C186.179 70.2852 186.281 70.2649 186.376 70.2254C186.472 70.1859 186.558 70.128 186.631 70.0549L188.203 68.4835C188.346 68.3353 188.425 68.1368 188.423 67.9308C188.421 67.7248 188.339 67.5277 188.193 67.382C188.047 67.2363 187.85 67.1537 187.644 67.1519C187.438 67.1501 187.24 67.2293 187.092 67.3725L185.52 68.9439C185.41 69.0538 185.335 69.1938 185.305 69.3462C185.275 69.4986 185.29 69.6565 185.35 69.8001C185.409 69.9436 185.51 70.0663 185.639 70.1527Z" fill="#FAFBFC"/>
<path d="M154.784 74.0544C154.655 74.1407 154.503 74.1868 154.347 74.1868C154.244 74.1869 154.142 74.1667 154.047 74.1271C153.951 74.0876 153.865 74.0297 153.792 73.9566L152.221 72.3852C152.077 72.237 151.998 72.0385 152 71.8325C152.002 71.6265 152.084 71.4294 152.23 71.2837C152.376 71.1381 152.573 71.0554 152.779 71.0536C152.985 71.0518 153.183 71.131 153.332 71.2742L154.903 72.8456C155.013 72.9555 155.088 73.0955 155.118 73.2479C155.148 73.4003 155.133 73.5582 155.073 73.7018C155.014 73.8453 154.913 73.968 154.784 74.0544Z" fill="#FAFBFC"/>
<path d="M188.542 76.7093C188.671 76.7956 188.823 76.8417 188.979 76.8418C189.082 76.8419 189.184 76.8216 189.279 76.7821C189.375 76.7425 189.461 76.6846 189.534 76.6115L191.105 75.0401C191.249 74.8919 191.328 74.6934 191.326 74.4874C191.324 74.2814 191.242 74.0843 191.096 73.9387C190.95 73.793 190.753 73.7103 190.547 73.7086C190.341 73.7068 190.143 73.786 189.994 73.9291L188.423 75.5005C188.313 75.6104 188.238 75.7504 188.208 75.9028C188.178 76.0552 188.193 76.2132 188.253 76.3567C188.312 76.5003 188.413 76.623 188.542 76.7093Z" fill="#FAFBFC"/>
</svg>
