<svg width="25" height="24" viewBox="0 0 25 24" fill="none" xmlns="http://www.w3.org/2000/svg">
<path d="M21.5 11.5C21.5034 12.8199 21.1951 14.1219 20.6 15.3C19.8944 16.7118 18.8098 17.8992 17.4674 18.7293C16.1251 19.5594 14.5782 19.9994 13 20C11.6801 20.0035 10.3781 19.6951 9.2 19.1L3.5 21L5.4 15.3C4.80493 14.1219 4.49656 12.8199 4.5 11.5C4.50061 9.92179 4.94061 8.37488 5.77072 7.03258C6.60083 5.69028 7.78825 4.6056 9.2 3.90003C10.3781 3.30496 11.6801 2.99659 13 3.00003H13.5C15.5843 3.11502 17.553 3.99479 19.0291 5.47089C20.5052 6.94699 21.385 8.91568 21.5 11V11.5Z" stroke="#B6C4CF" stroke-width="1.5" stroke-linecap="round" stroke-linejoin="round"/>
<path fill-rule="evenodd" clip-rule="evenodd" d="M12.7034 14.8959C14.0252 14.9705 15.342 14.5527 16.1986 13.5564C16.4686 13.2423 16.9421 13.2066 17.2562 13.4766C17.5703 13.7466 17.606 14.2202 17.336 14.5343C16.1026 15.9689 14.283 16.4875 12.6189 16.3935C10.973 16.3007 9.31899 15.5987 8.40652 14.379C8.1584 14.0473 8.22614 13.5773 8.55782 13.3292C8.88949 13.0811 9.35951 13.1488 9.60763 13.4805C10.1825 14.2489 11.3636 14.8203 12.7034 14.8959Z" fill="#B6C4CF"/>
</svg>
