<svg width="45" height="46" viewBox="0 0 45 46" fill="none" xmlns="http://www.w3.org/2000/svg">
<mask id="mask0_505_14086" style="mask-type:alpha" maskUnits="userSpaceOnUse" x="0" y="0" width="45" height="46">
<ellipse cx="22.5" cy="22.5871" rx="22.5" ry="22.5871" fill="#D9D9D9"/>
</mask>
<g mask="url(#mask0_505_14086)">
<path fill-rule="evenodd" clip-rule="evenodd" d="M45.0002 42.3774C45.0002 44.4138 43.3518 46.0632 41.3072 46.0632H2.63733C0.602019 46.0632 -1.05566 44.4138 -1.05566 42.3774V3.68576C-1.05566 1.64942 0.602019 0 2.63733 0H41.3072C43.3425 0 45.0002 1.64942 45.0002 3.68576V42.3774Z" fill="url(#paint0_radial_505_14086)"/>
<path fill-rule="evenodd" clip-rule="evenodd" d="M26.7043 11.5103H18.2956C14.5647 11.5103 11.543 14.5651 11.543 18.3367V26.8374C11.543 30.609 14.5647 33.6639 18.2956 33.6639H26.7043C30.435 33.6639 33.4569 30.609 33.4569 26.8374V18.3367C33.4569 14.5651 30.435 11.5103 26.7043 11.5103ZM31.3532 26.0209C31.3532 29.0699 28.9125 31.5372 25.8964 31.5372H19.0975C16.0815 31.5372 13.6407 29.0699 13.6407 26.0209V19.1532C13.6407 16.1102 16.0815 13.6369 19.0975 13.6369H25.8964C28.9066 13.6369 31.3532 16.1102 31.3532 19.1532V26.0209Z" fill="white"/>
<path fill-rule="evenodd" clip-rule="evenodd" d="M22.746 16.7761C19.5376 16.7761 16.9429 19.3868 16.9429 22.6017C16.9429 25.8166 19.5435 28.4272 22.746 28.4272C25.9543 28.4272 28.549 25.8166 28.549 22.6017C28.5549 19.3809 25.9543 16.7761 22.746 16.7761ZM22.746 26.1099C20.8175 26.1099 19.2512 24.5377 19.2512 22.6017C19.2512 20.6657 20.8116 19.0934 22.746 19.0934C24.6746 19.0934 26.2407 20.6599 26.2407 22.6017C26.2407 24.5377 24.6746 26.1099 22.746 26.1099Z" fill="white"/>
<path fill-rule="evenodd" clip-rule="evenodd" d="M29.4139 16.9202C29.4139 17.6068 28.8579 18.1698 28.1691 18.1698C27.4852 18.1698 26.9292 17.6117 26.9292 16.9202C26.9292 16.2337 27.4852 15.6706 28.1691 15.6706C28.8579 15.6755 29.4139 16.2337 29.4139 16.9202Z" fill="white"/>
</g>
<defs>
<radialGradient id="paint0_radial_505_14086" cx="0" cy="0" r="1" gradientUnits="userSpaceOnUse" gradientTransform="translate(-1.05566 46.0633) scale(65.0126 65.2642)">
<stop stop-color="#FED378"/>
<stop offset="0.17" stop-color="#FED378"/>
<stop offset="0.42" stop-color="#DD5666"/>
<stop offset="0.61" stop-color="#CA3592"/>
<stop offset="1" stop-color="#8159A6"/>
</radialGradient>
</defs>
</svg>
