<svg width="20" height="20" viewBox="0 0 20 20" fill="none" xmlns="http://www.w3.org/2000/svg">
<path fill-rule="evenodd" clip-rule="evenodd" d="M4.22543 9.58544C4.22543 6.61045 6.69083 4.19874 9.73206 4.19874C12.7733 4.19874 15.2387 6.61045 15.2387 9.58544C15.2387 12.5604 12.7733 14.9721 9.73206 14.9721C6.69083 14.9721 4.22543 12.5604 4.22543 9.58544ZM9.73206 3C6.01405 3 3 5.9484 3 9.58544C3 13.2225 6.01405 16.1709 9.73206 16.1709C11.2894 16.1709 12.7233 15.6536 13.8638 14.7851L15.9546 16.825C16.1942 17.0588 16.5821 17.0583 16.8211 16.8239C17.0601 16.5895 17.0596 16.21 16.82 15.9763L14.7592 13.9656C15.8197 12.8017 16.4641 11.2672 16.4641 9.58544C16.4641 5.9484 13.4501 3 9.73206 3Z" fill="#9BA0AF"/>
</svg>
