<svg width="25" height="24" viewBox="0 0 25 24" fill="none" xmlns="http://www.w3.org/2000/svg">
<path d="M9.5 20L12.5 17L15.5 20" stroke="#B6C4CF" stroke-width="1.5" stroke-linecap="round" stroke-linejoin="round"/>
<path d="M15.5 4L12.5 7L9.5 4" stroke="#B6C4CF" stroke-width="1.5" stroke-linecap="round" stroke-linejoin="round"/>
<path d="M12.5 3V7V12V17V21" stroke="#B6C4CF" stroke-width="1.5" stroke-linecap="round" stroke-linejoin="round"/>
<path d="M17.9282 18.598L16.8301 14.4999L20.9282 13.4019" stroke="#B6C4CF" stroke-width="1.5" stroke-linecap="round" stroke-linejoin="round"/>
<path d="M7.07178 5.40186L8.16985 9.49994L4.07178 10.598" stroke="#B6C4CF" stroke-width="1.5" stroke-linecap="round" stroke-linejoin="round"/>
<path d="M4.70557 7.5L8.16967 9.5L12.4998 12L16.8299 14.5L20.294 16.5" stroke="#B6C4CF" stroke-width="1.5" stroke-linecap="round" stroke-linejoin="round"/>
<path d="M20.9282 10.598L16.8301 9.49994L17.9282 5.40186" stroke="#B6C4CF" stroke-width="1.5" stroke-linecap="round" stroke-linejoin="round"/>
<path d="M4.07178 13.4019L8.16985 14.4999L7.07178 18.598" stroke="#B6C4CF" stroke-width="1.5" stroke-linecap="round" stroke-linejoin="round"/>
<path d="M4.70557 16.5L8.16967 14.5L12.4998 12L16.8299 9.5L20.294 7.5" stroke="#B6C4CF" stroke-width="1.5" stroke-linecap="round" stroke-linejoin="round"/>
</svg>
