<svg width="24" height="24" viewBox="0 0 24 24" fill="none" xmlns="http://www.w3.org/2000/svg">
<circle cx="12" cy="12" r="12" fill="#0091FF"/>
<path d="M12.5001 8.66669C12.5001 8.39054 12.2762 8.16669 12.0001 8.16669C11.7239 8.16669 11.5001 8.39054 11.5001 8.66669H12.5001ZM11.5001 15.3334C11.5001 15.6095 11.7239 15.8334 12.0001 15.8334C12.2762 15.8334 12.5001 15.6095 12.5001 15.3334H11.5001ZM8.66675 11.5C8.39061 11.5 8.16675 11.7239 8.16675 12C8.16675 12.2762 8.39061 12.5 8.66675 12.5V11.5ZM15.3334 12.5C15.6096 12.5 15.8334 12.2762 15.8334 12C15.8334 11.7239 15.6096 11.5 15.3334 11.5V12.5ZM11.5001 8.66669V15.3334H12.5001V8.66669H11.5001ZM8.66675 12.5H15.3334V11.5H8.66675V12.5Z" fill="#FAFBFC"/>
</svg>
