<svg width="94" height="94" viewBox="0 0 94 94" fill="none" xmlns="http://www.w3.org/2000/svg">
<circle cx="47" cy="47" r="47" fill="#DAD9D9"/>
<path d="M60.6667 62V62.75C61.0809 62.75 61.4167 62.4142 61.4167 62H60.6667ZM34 62H33.25C33.25 62.4142 33.5858 62.75 34 62.75V62ZM40.6667 52.75H54V51.25H40.6667V52.75ZM59.9167 58.6667V62H61.4167V58.6667H59.9167ZM34.75 62V58.6667H33.25V62H34.75ZM54 52.75C57.2677 52.75 59.9167 55.399 59.9167 58.6667H61.4167C61.4167 54.5706 58.0961 51.25 54 51.25V52.75ZM40.6667 51.25C36.5706 51.25 33.25 54.5706 33.25 58.6667H34.75C34.75 55.399 37.399 52.75 40.6667 52.75V51.25ZM53.25 38.6667C53.25 41.9344 50.601 44.5833 47.3333 44.5833V46.0833C51.4294 46.0833 54.75 42.7628 54.75 38.6667H53.25ZM47.3333 44.5833C44.0656 44.5833 41.4167 41.9344 41.4167 38.6667H39.9167C39.9167 42.7628 43.2372 46.0833 47.3333 46.0833V44.5833ZM41.4167 38.6667C41.4167 35.399 44.0656 32.75 47.3333 32.75V31.25C43.2372 31.25 39.9167 34.5706 39.9167 38.6667H41.4167ZM47.3333 32.75C50.601 32.75 53.25 35.399 53.25 38.6667H54.75C54.75 34.5706 51.4294 31.25 47.3333 31.25V32.75ZM34 62.75H60.6667V61.25H34V62.75Z" fill="white"/>
</svg>
