<svg width="25" height="24" viewBox="0 0 25 24" fill="none" xmlns="http://www.w3.org/2000/svg">
<path d="M12.013 19.75C11.5988 19.75 11.263 20.0858 11.263 20.5C11.263 20.9142 11.5988 21.25 12.013 21.25V19.75ZM20.415 21.25C20.8292 21.25 21.165 20.9142 21.165 20.5C21.165 20.0858 20.8292 19.75 20.415 19.75V21.25ZM4.10519 20.5H3.35519C3.35519 20.9142 3.69098 21.25 4.10519 21.25V20.5ZM4.10519 16.5L3.5718 15.9728C3.43302 16.1131 3.35519 16.3026 3.35519 16.5H4.10519ZM16.9553 3.5L17.4887 2.97275C17.3478 2.83022 17.1558 2.75 16.9553 2.75C16.7549 2.75 16.5628 2.83022 16.4219 2.97275L16.9553 3.5ZM20.9092 7.5L21.4426 8.02725C21.7314 7.73507 21.7314 7.26493 21.4426 6.97275L20.9092 7.5ZM8.05908 20.5V21.25C8.2595 21.25 8.45159 21.1698 8.59248 21.0272L8.05908 20.5ZM12.013 21.25H20.415V19.75H12.013V21.25ZM4.85519 20.5V16.5H3.35519V20.5H4.85519ZM16.4219 4.02725L20.3758 8.02725L21.4426 6.97275L17.4887 2.97275L16.4219 4.02725ZM8.05908 19.75H4.10519V21.25H8.05908V19.75ZM20.3758 6.97275L17.4104 9.97275L18.4772 11.0272L21.4426 8.02725L20.3758 6.97275ZM17.4104 9.97275L7.52569 19.9728L8.59248 21.0272L18.4772 11.0272L17.4104 9.97275ZM4.63859 17.0272L14.5233 7.02725L13.4565 5.97275L3.5718 15.9728L4.63859 17.0272ZM14.5233 7.02725L17.4887 4.02725L16.4219 2.97275L13.4565 5.97275L14.5233 7.02725ZM18.4772 9.97275L14.5233 5.97275L13.4565 7.02725L17.4104 11.0272L18.4772 9.97275Z" fill="#132029"/>
</svg>
