<svg width="16" height="17" viewBox="0 0 16 17" fill="none" xmlns="http://www.w3.org/2000/svg">
<path fill-rule="evenodd" clip-rule="evenodd" d="M0.889459 15.2979C0.398554 14.807 0.398554 14.0111 0.889459 13.5202L13.3335 1.07612C13.8244 0.585215 14.6203 0.585216 15.1112 1.07612C15.6021 1.56703 15.6021 2.36294 15.1112 2.85384L2.66718 15.2979C2.17628 15.7888 1.38036 15.7888 0.889459 15.2979Z" fill="#1D1111"/>
<path fill-rule="evenodd" clip-rule="evenodd" d="M15.1105 15.2984C14.6196 15.7893 13.8237 15.7893 13.3328 15.2984L0.888756 2.85433C0.397851 2.36343 0.397851 1.56751 0.888756 1.07661C1.37966 0.585704 2.17557 0.585704 2.66648 1.07661L15.1105 13.5207C15.6014 14.0116 15.6014 14.8075 15.1105 15.2984Z" fill="#1D1111"/>
</svg>
