<svg width="24" height="24" viewBox="0 0 24 24" fill="none" xmlns="http://www.w3.org/2000/svg">
<path d="M19.591 5.52725C19.8822 5.23266 19.8795 4.75779 19.5849 4.4666C19.2903 4.17541 18.8154 4.17817 18.5243 4.47275L19.591 5.52725ZM4.68563 18.4728C4.39444 18.7674 4.39719 19.2422 4.69178 19.5334C4.98636 19.8246 5.46123 19.8218 5.75242 19.5273L4.68563 18.4728ZM5.75243 4.47275C5.46124 4.17817 4.98638 4.17541 4.69179 4.4666C4.39721 4.75779 4.39445 5.23266 4.68564 5.52725L5.75243 4.47275ZM18.5243 19.5273C18.8155 19.8218 19.2903 19.8246 19.5849 19.5334C19.8795 19.2422 19.8823 18.7674 19.5911 18.4728L18.5243 19.5273ZM18.5243 4.47275L4.68563 18.4728L5.75242 19.5273L19.591 5.52725L18.5243 4.47275ZM4.68564 5.52725L18.5243 19.5273L19.5911 18.4728L5.75243 4.47275L4.68564 5.52725Z" fill="#132029"/>
</svg>
