<svg width="24" height="24" viewBox="0 0 24 24" fill="none" xmlns="http://www.w3.org/2000/svg">
<g filter="url(#filter0_d_505_14107)">
<path d="M23.5303 5.53033C23.8232 5.23744 23.8232 4.76256 23.5303 4.46967C23.2374 4.17678 22.7626 4.17678 22.4697 4.46967L23.5303 5.53033ZM8.46967 18.4697C8.17678 18.7626 8.17678 19.2374 8.46967 19.5303C8.76256 19.8232 9.23744 19.8232 9.53033 19.5303L8.46967 18.4697ZM9.53034 4.46967C9.23745 4.17678 8.76258 4.17678 8.46968 4.46967C8.17679 4.76256 8.17679 5.23744 8.46968 5.53033L9.53034 4.46967ZM22.4697 19.5303C22.7626 19.8232 23.2375 19.8232 23.5304 19.5303C23.8232 19.2374 23.8232 18.7626 23.5304 18.4697L22.4697 19.5303ZM22.4697 4.46967L8.46967 18.4697L9.53033 19.5303L23.5303 5.53033L22.4697 4.46967ZM8.46968 5.53033L22.4697 19.5303L23.5304 18.4697L9.53034 4.46967L8.46968 5.53033Z" fill="#324857"/>
</g>
<defs>
<filter id="filter0_d_505_14107" x="0" y="0" width="24" height="24" filterUnits="userSpaceOnUse" color-interpolation-filters="sRGB">
<feFlood flood-opacity="0" result="BackgroundImageFix"/>
<feColorMatrix in="SourceAlpha" type="matrix" values="0 0 0 0 0 0 0 0 0 0 0 0 0 0 0 0 0 0 127 0" result="hardAlpha"/>
<feOffset dy="4"/>
<feGaussianBlur stdDeviation="2"/>
<feComposite in2="hardAlpha" operator="out"/>
<feColorMatrix type="matrix" values="0 0 0 0 0 0 0 0 0 0 0 0 0 0 0 0 0 0 0.25 0"/>
<feBlend mode="normal" in2="BackgroundImageFix" result="effect1_dropShadow_505_14107"/>
<feBlend mode="normal" in="SourceGraphic" in2="effect1_dropShadow_505_14107" result="shape"/>
</filter>
</defs>
</svg>
